<svg width="68" height="15" viewBox="0 0 68 15" fill="none" xmlns="http://www.w3.org/2000/svg">
<path d="M5.52877 14.5607C2.75949 14.5412 0 12.8972 0.00978544 7.67178C0.00978544 2.82799 2.21151 0 5.68534 0C8.41548 0 10.2943 1.71245 10.6172 4.01203H8.09256C7.83814 2.92585 6.97702 2.20172 5.68534 2.21151C3.6304 2.20172 2.4855 4.02182 2.47572 7.00637H2.61271C3.33683 5.78319 4.69701 5.05907 6.2529 5.06886C8.79711 5.05907 10.764 6.9868 10.7542 9.66801C10.764 12.4862 8.66011 14.5803 5.52877 14.5607ZM2.74971 9.7463C2.76928 11.2239 3.92396 12.496 5.52877 12.5058C7.10423 12.496 8.27848 11.2826 8.28827 9.72673C8.27848 8.21977 7.14337 7.00637 5.56792 7.00637C3.97289 7.00637 2.76928 8.2687 2.74971 9.7463ZM18.1324 14.5607C14.7173 14.5607 12.6819 11.9187 12.6917 7.28037C12.6819 2.66164 14.7369 0 18.1324 0C21.528 0 23.5731 2.66164 23.5731 7.28037C23.5731 11.9285 21.5378 14.5607 18.1324 14.5607ZM15.2555 7.28037C15.2555 10.6857 16.3515 12.4177 18.1324 12.4275C19.9036 12.4177 21.0093 10.6857 21.0093 7.28037C20.9996 3.90439 19.9036 2.12344 18.1324 2.11366C16.3613 2.12344 15.2653 3.90439 15.2555 7.28037ZM30.8535 14.5607C27.8298 14.5607 25.6672 12.9168 25.6085 10.5291H28.1723C28.2408 11.6642 29.3759 12.4177 30.8535 12.4079C32.4094 12.4177 33.5347 11.5566 33.5347 10.2943C33.5347 9.02218 32.4387 8.11213 30.5991 8.10234H29.327V6.14526H30.5991C32.106 6.14526 33.1531 5.30371 33.1433 4.07074C33.1531 2.87692 32.2528 2.07451 30.8731 2.07451C29.5422 2.07451 28.3973 2.81821 28.3484 4.01203H25.9021C25.9608 1.63417 28.1234 0 30.8926 0C33.7696 0 35.6288 1.76138 35.6092 3.93375C35.6288 5.51899 34.572 6.66388 33.0259 6.9868V7.10423C35.0221 7.36844 36.1572 8.65033 36.1376 10.4313C36.1572 12.8287 33.9163 14.5607 30.8535 14.5607Z" fill="#0D1F26"/>
<path d="M43.7791 14.365V5.15497H44.8731V10.5105H45.0003L47.9898 7.45748H49.3382L46.4251 10.4151L49.5544 14.365H48.1678L45.6046 11.1084L44.8731 11.789V14.365H43.7791ZM52.3531 14.365L49.8343 5.15497H50.9919L52.9128 12.6095H53.0019L54.9482 5.15497H56.233L58.1921 12.6095H58.2684L60.1893 5.15497H61.3469L58.8281 14.365H57.645L55.6351 7.07585H55.5588L53.5361 14.365H52.3531ZM63.5222 10.218V14.365H62.4282V5.15497H63.5222V8.53877H63.6112C63.9356 7.82639 64.5526 7.36844 65.6466 7.36844C67.0586 7.36844 68 8.20167 68 9.97626V14.365H66.906V10.0526C66.906 8.96493 66.3081 8.34796 65.3159 8.34796C64.2854 8.34796 63.5222 9.02218 63.5222 10.218Z" fill="#999999"/>
</svg>
