<svg width="41" height="11" viewBox="0 0 41 11" fill="none" xmlns="http://www.w3.org/2000/svg">
<path d="M8.59581 0.131143V7.85664H7.84472V3.73161H5.53184V3.09974H7.84472V0.131143H8.59581ZM0 5.82989C1.50218 5.29936 2.73015 3.89852 2.73015 2.33673V1.68101H0.262286V1.03722H5.91335V1.68101H3.48124V2.33673C3.48124 3.73757 4.63769 5.06092 6.12794 5.57953L5.73452 6.18755C4.54827 5.7524 3.57066 4.8344 3.12358 3.7018C2.6765 4.9715 1.63928 5.97296 0.393428 6.44984L0 5.82989ZM1.91945 10.396V7.15324H2.67054V9.76418H8.90579V10.396H1.91945ZM13.4958 3.38587C13.4898 5.09669 14.4495 6.87307 15.8564 7.63013L15.4152 8.20238C14.3423 7.60032 13.5256 6.426 13.1441 5.08476C12.7745 6.50945 11.9698 7.77319 10.8968 8.4289L10.4318 7.85664C11.8386 7.03402 12.7685 5.1563 12.7805 3.38587V2.76592H10.6822V2.13405H12.7805V0.524571H13.5077V2.13405H15.5702V2.76592H13.4958V3.38587ZM14.8072 4.98343V4.33963H16.5955V0.40535H17.3108V10.0741H16.5955V4.98343H14.8072ZM18.7057 10.6464V0.131143H19.433V10.6464H18.7057ZM24.0707 8.10701V6.86711L27.8023 1.08491H29.7336V6.83135H30.8662V8.10701H29.7336V9.71649H28.2553V8.10701H24.0707ZM25.6563 6.83135H28.2792V2.84937H28.1838L25.6563 6.77174V6.83135ZM41 0V10.7776H39.7243V5.24571H38.5679V10.2768H37.328V0.28613H38.5679V4.17272H39.7243V0H41ZM31.665 7.60628C33.96 6.28293 34.9317 4.57808 35.1224 2.42018H32.1657V1.35912H36.41C36.41 4.27406 35.492 6.7777 32.428 8.52428L31.665 7.60628Z" fill="#0D1F26"/>
</svg>
