<svg width="9" height="9" viewBox="0 0 9 9" fill="none" xmlns="http://www.w3.org/2000/svg">
<mask id="mask0_8_3587" style="mask-type:alpha" maskUnits="userSpaceOnUse" x="0" y="1" width="9" height="7">
<path fill-rule="evenodd" clip-rule="evenodd" d="M2.46357 7.32811C2.46009 7.32813 2.45661 7.32814 2.45312 7.32814C1.48663 7.32814 0.703125 6.54464 0.703125 5.57814C0.703125 4.82473 1.17923 4.18251 1.84699 3.93596C1.99775 2.72133 3.03362 1.78125 4.28906 1.78125C5.33291 1.78125 6.22496 2.43115 6.58266 3.34839C7.55185 3.48706 8.29688 4.32059 8.29688 5.32812C8.29688 6.43269 7.40144 7.32812 6.29688 7.32812C6.29424 7.32812 6.29161 7.32812 6.28898 7.32811H2.46357Z" fill="#C8E0FF"/>
</mask>
<g mask="url(#mask0_8_3587)">
<g filter="url(#filter0_bi_8_3587)">
<path fill-rule="evenodd" clip-rule="evenodd" d="M2.46357 7.32811C2.46009 7.32813 2.45661 7.32814 2.45312 7.32814C1.48663 7.32814 0.703125 6.54464 0.703125 5.57814C0.703125 4.82473 1.17923 4.18251 1.84699 3.93596C1.99775 2.72133 3.03362 1.78125 4.28906 1.78125C5.33291 1.78125 6.22496 2.43115 6.58266 3.34839C7.55185 3.48706 8.29688 4.32059 8.29688 5.32812C8.29688 6.43269 7.40144 7.32812 6.29688 7.32812C6.29424 7.32812 6.29161 7.32812 6.28898 7.32811H2.46357Z" fill="url(#paint0_radial_8_3587)" fill-opacity="0.8"/>
</g>
<mask id="mask1_8_3587" style="mask-type:alpha" maskUnits="userSpaceOnUse" x="1" y="1" width="6" height="6">
<g style="mix-blend-mode:soft-light">
<path fill-rule="evenodd" clip-rule="evenodd" d="M4.28906 6.70312C5.64819 6.70312 6.74999 5.60133 6.74999 4.24219C6.74999 2.88305 5.64819 1.78125 4.28906 1.78125C3.03362 1.78125 1.99775 2.72133 1.84698 3.93596C2.03584 3.86622 2.24003 3.82814 2.45312 3.82814C3.41962 3.82814 4.20312 4.61164 4.20312 5.57814C4.20312 5.9866 4.06318 6.36237 3.82864 6.66013C3.97779 6.68836 4.1317 6.70312 4.28906 6.70312Z" fill="#09244B"/>
</g>
</mask>
<g mask="url(#mask1_8_3587)">
<g style="mix-blend-mode:soft-light" filter="url(#filter1_i_8_3587)">
<circle cx="4.28906" cy="4.24219" r="2.46094" fill="url(#paint1_linear_8_3587)"/>
</g>
</g>
<g style="mix-blend-mode:soft-light" filter="url(#filter2_i_8_3587)">
<circle cx="2.45312" cy="5.57812" r="1.75" fill="url(#paint2_linear_8_3587)"/>
</g>
<g style="mix-blend-mode:soft-light" opacity="0.7">
<circle cx="6.29688" cy="5.32812" r="2" fill="url(#paint3_linear_8_3587)"/>
</g>
</g>
<defs>
<filter id="filter0_bi_8_3587" x="0.078125" y="1.15625" width="8.84375" height="6.79688" filterUnits="userSpaceOnUse" color-interpolation-filters="sRGB">
<feFlood flood-opacity="0" result="BackgroundImageFix"/>
<feGaussianBlur in="BackgroundImageFix" stdDeviation="0.3125"/>
<feComposite in2="SourceAlpha" operator="in" result="effect1_backgroundBlur_8_3587"/>
<feBlend mode="normal" in="SourceGraphic" in2="effect1_backgroundBlur_8_3587" result="shape"/>
<feColorMatrix in="SourceAlpha" type="matrix" values="0 0 0 0 0 0 0 0 0 0 0 0 0 0 0 0 0 0 127 0" result="hardAlpha"/>
<feOffset dy="0.421875"/>
<feGaussianBlur stdDeviation="0.421875"/>
<feComposite in2="hardAlpha" operator="arithmetic" k2="-1" k3="1"/>
<feColorMatrix type="matrix" values="0 0 0 0 1 0 0 0 0 1 0 0 0 0 1 0 0 0 0.95 0"/>
<feBlend mode="normal" in2="shape" result="effect2_innerShadow_8_3587"/>
</filter>
<filter id="filter1_i_8_3587" x="1.82812" y="1.78125" width="5.34375" height="5.34375" filterUnits="userSpaceOnUse" color-interpolation-filters="sRGB">
<feFlood flood-opacity="0" result="BackgroundImageFix"/>
<feBlend mode="normal" in="SourceGraphic" in2="BackgroundImageFix" result="shape"/>
<feColorMatrix in="SourceAlpha" type="matrix" values="0 0 0 0 0 0 0 0 0 0 0 0 0 0 0 0 0 0 127 0" result="hardAlpha"/>
<feOffset dx="0.421875" dy="0.421875"/>
<feGaussianBlur stdDeviation="0.421875"/>
<feComposite in2="hardAlpha" operator="arithmetic" k2="-1" k3="1"/>
<feColorMatrix type="matrix" values="0 0 0 0 1 0 0 0 0 1 0 0 0 0 1 0 0 0 0.7 0"/>
<feBlend mode="normal" in2="shape" result="effect1_innerShadow_8_3587"/>
</filter>
<filter id="filter2_i_8_3587" x="0.703125" y="3.82812" width="3.88889" height="3.88889" filterUnits="userSpaceOnUse" color-interpolation-filters="sRGB">
<feFlood flood-opacity="0" result="BackgroundImageFix"/>
<feBlend mode="normal" in="SourceGraphic" in2="BackgroundImageFix" result="shape"/>
<feColorMatrix in="SourceAlpha" type="matrix" values="0 0 0 0 0 0 0 0 0 0 0 0 0 0 0 0 0 0 127 0" result="hardAlpha"/>
<feOffset dx="0.388889" dy="0.388889"/>
<feGaussianBlur stdDeviation="0.388889"/>
<feComposite in2="hardAlpha" operator="arithmetic" k2="-1" k3="1"/>
<feColorMatrix type="matrix" values="0 0 0 0 1 0 0 0 0 1 0 0 0 0 1 0 0 0 0.7 0"/>
<feBlend mode="normal" in2="shape" result="effect1_innerShadow_8_3587"/>
</filter>
<radialGradient id="paint0_radial_8_3587" cx="0" cy="0" r="1" gradientUnits="userSpaceOnUse" gradientTransform="translate(4.85156 3.60156) rotate(90) scale(3.16406 3.51563)">
<stop offset="0.239583" stop-color="#C8E0FF"/>
<stop offset="1" stop-color="#89C8F5"/>
</radialGradient>
<linearGradient id="paint1_linear_8_3587" x1="4.28906" y1="1.78125" x2="4.28906" y2="6.70312" gradientUnits="userSpaceOnUse">
<stop stop-color="#7DAAE6"/>
<stop offset="1" stop-color="#7DAAE5" stop-opacity="0"/>
</linearGradient>
<linearGradient id="paint2_linear_8_3587" x1="2.45312" y1="3.82812" x2="2.45312" y2="7.32812" gradientUnits="userSpaceOnUse">
<stop stop-color="#7DAAE6"/>
<stop offset="1" stop-color="#7DAAE5" stop-opacity="0"/>
</linearGradient>
<linearGradient id="paint3_linear_8_3587" x1="8.29687" y1="5.45313" x2="5.98437" y2="5.32812" gradientUnits="userSpaceOnUse">
<stop stop-color="#96CDF6"/>
<stop offset="1" stop-color="#96CDF6" stop-opacity="0"/>
</linearGradient>
</defs>
</svg>
