<svg width="14" height="14" viewBox="0 0 14 14" fill="none" xmlns="http://www.w3.org/2000/svg">
<mask id="mask0_8_3569" style="mask-type:alpha" maskUnits="userSpaceOnUse" x="1" y="2" width="12" height="10">
<path fill-rule="evenodd" clip-rule="evenodd" d="M9.79514 11.3993H3.81606C3.81603 11.3993 3.816 11.3993 3.81597 11.3993C2.31253 11.3993 1.09375 10.1805 1.09375 8.67708C1.09375 7.5051 1.83436 6.50611 2.8731 6.12257C3.10763 4.23317 4.71898 2.77083 6.67188 2.77083C8.29563 2.77083 9.68326 3.78179 10.2397 5.20861C11.7473 5.42431 12.9062 6.72091 12.9062 8.28819C12.9062 10.0062 11.5137 11.399 9.79576 11.3993C9.79555 11.3993 9.79534 11.3993 9.79514 11.3993Z" fill="#C8E0FF"/>
</mask>
<g mask="url(#mask0_8_3569)">
<g filter="url(#filter0_bi_8_3569)">
<path fill-rule="evenodd" clip-rule="evenodd" d="M9.79514 11.3993H3.81606C3.81603 11.3993 3.816 11.3993 3.81597 11.3993C2.31253 11.3993 1.09375 10.1805 1.09375 8.67708C1.09375 7.5051 1.83436 6.50611 2.8731 6.12257C3.10763 4.23317 4.71898 2.77083 6.67188 2.77083C8.29563 2.77083 9.68326 3.78179 10.2397 5.20861C11.7473 5.42431 12.9062 6.72091 12.9062 8.28819C12.9062 10.0062 11.5137 11.399 9.79576 11.3993C9.79555 11.3993 9.79534 11.3993 9.79514 11.3993Z" fill="url(#paint0_radial_8_3569)" fill-opacity="0.85"/>
</g>
<mask id="mask1_8_3569" style="mask-type:alpha" maskUnits="userSpaceOnUse" x="2" y="2" width="9" height="9">
<g style="mix-blend-mode:soft-light">
<path fill-rule="evenodd" clip-rule="evenodd" d="M6.67186 10.4271C8.78608 10.4271 10.5 8.71317 10.5 6.59896C10.5 4.48474 8.78608 2.77083 6.67186 2.77083C4.71897 2.77083 3.10762 4.23317 2.87309 6.12257C3.16687 6.0141 3.4845 5.95486 3.81596 5.95486C5.3194 5.95486 6.53818 7.17364 6.53818 8.67708C6.53818 9.31247 6.3205 9.89701 5.95564 10.3602C6.18766 10.4041 6.42708 10.4271 6.67186 10.4271Z" fill="#09244B"/>
</g>
</mask>
<g mask="url(#mask1_8_3569)">
<g style="mix-blend-mode:soft-light" filter="url(#filter1_i_8_3569)">
<circle cx="6.67188" cy="6.59896" r="3.82812" fill="url(#paint1_linear_8_3569)"/>
</g>
</g>
<g style="mix-blend-mode:soft-light" filter="url(#filter2_i_8_3569)">
<circle cx="3.81597" cy="8.67708" r="2.72222" fill="url(#paint2_linear_8_3569)"/>
</g>
<g style="mix-blend-mode:soft-light" opacity="0.7">
<circle cx="9.79514" cy="8.28819" r="3.11111" fill="url(#paint3_linear_8_3569)"/>
</g>
</g>
<defs>
<filter id="filter0_bi_8_3569" x="0.121528" y="1.79861" width="13.7569" height="10.5729" filterUnits="userSpaceOnUse" color-interpolation-filters="sRGB">
<feFlood flood-opacity="0" result="BackgroundImageFix"/>
<feGaussianBlur in="BackgroundImageFix" stdDeviation="0.46875"/>
<feComposite in2="SourceAlpha" operator="in" result="effect1_backgroundBlur_8_3569"/>
<feBlend mode="normal" in="SourceGraphic" in2="effect1_backgroundBlur_8_3569" result="shape"/>
<feColorMatrix in="SourceAlpha" type="matrix" values="0 0 0 0 0 0 0 0 0 0 0 0 0 0 0 0 0 0 127 0" result="hardAlpha"/>
<feOffset dy="0.632812"/>
<feGaussianBlur stdDeviation="0.632812"/>
<feComposite in2="hardAlpha" operator="arithmetic" k2="-1" k3="1"/>
<feColorMatrix type="matrix" values="0 0 0 0 1 0 0 0 0 1 0 0 0 0 1 0 0 0 0.95 0"/>
<feBlend mode="normal" in2="shape" result="effect2_innerShadow_8_3569"/>
</filter>
<filter id="filter1_i_8_3569" x="2.84375" y="2.77083" width="8.3125" height="8.3125" filterUnits="userSpaceOnUse" color-interpolation-filters="sRGB">
<feFlood flood-opacity="0" result="BackgroundImageFix"/>
<feBlend mode="normal" in="SourceGraphic" in2="BackgroundImageFix" result="shape"/>
<feColorMatrix in="SourceAlpha" type="matrix" values="0 0 0 0 0 0 0 0 0 0 0 0 0 0 0 0 0 0 127 0" result="hardAlpha"/>
<feOffset dx="0.632812" dy="0.632812"/>
<feGaussianBlur stdDeviation="0.632812"/>
<feComposite in2="hardAlpha" operator="arithmetic" k2="-1" k3="1"/>
<feColorMatrix type="matrix" values="0 0 0 0 1 0 0 0 0 1 0 0 0 0 1 0 0 0 0.7 0"/>
<feBlend mode="normal" in2="shape" result="effect1_innerShadow_8_3569"/>
</filter>
<filter id="filter2_i_8_3569" x="1.09375" y="5.95486" width="6.04938" height="6.04938" filterUnits="userSpaceOnUse" color-interpolation-filters="sRGB">
<feFlood flood-opacity="0" result="BackgroundImageFix"/>
<feBlend mode="normal" in="SourceGraphic" in2="BackgroundImageFix" result="shape"/>
<feColorMatrix in="SourceAlpha" type="matrix" values="0 0 0 0 0 0 0 0 0 0 0 0 0 0 0 0 0 0 127 0" result="hardAlpha"/>
<feOffset dx="0.583333" dy="0.583333"/>
<feGaussianBlur stdDeviation="0.583333"/>
<feComposite in2="hardAlpha" operator="arithmetic" k2="-1" k3="1"/>
<feColorMatrix type="matrix" values="0 0 0 0 1 0 0 0 0 1 0 0 0 0 1 0 0 0 0.7 0"/>
<feBlend mode="normal" in2="shape" result="effect1_innerShadow_8_3569"/>
</filter>
<radialGradient id="paint0_radial_8_3569" cx="0" cy="0" r="1" gradientUnits="userSpaceOnUse" gradientTransform="translate(7.54688 5.60243) rotate(90) scale(4.92188 5.46875)">
<stop offset="0.239583" stop-color="#C8E0FF"/>
<stop offset="1" stop-color="#89C8F5"/>
</radialGradient>
<linearGradient id="paint1_linear_8_3569" x1="6.7772" y1="2.87346" x2="6.7772" y2="10.5297" gradientUnits="userSpaceOnUse">
<stop stop-color="#7DAAE6"/>
<stop offset="1" stop-color="#7DAAE5" stop-opacity="0"/>
</linearGradient>
<linearGradient id="paint2_linear_8_3569" x1="3.85648" y1="6.17541" x2="3.85648" y2="11.6199" gradientUnits="userSpaceOnUse">
<stop stop-color="#7DAAE6"/>
<stop offset="1" stop-color="#7DAAE5" stop-opacity="0"/>
</linearGradient>
<linearGradient id="paint3_linear_8_3569" x1="13.1538" y1="8.67438" x2="9.55658" y2="8.47994" gradientUnits="userSpaceOnUse">
<stop stop-color="#96CDF6"/>
<stop offset="1" stop-color="#96CDF6" stop-opacity="0"/>
</linearGradient>
</defs>
</svg>
