<svg width="28" height="28" viewBox="0 0 28 28" fill="none" xmlns="http://www.w3.org/2000/svg">
<path fill-rule="evenodd" clip-rule="evenodd" d="M18.7727 14.9919H17.1731L16.6003 17.0752C16.5504 17.2615 16.44 17.426 16.2866 17.5429C16.1331 17.6597 15.9453 17.7224 15.7524 17.7211H15.7516C15.3507 17.7211 15.0102 17.461 14.9044 17.0752L14 13.7916L13.0964 17.0752C13.0464 17.2615 12.936 17.426 12.7826 17.5429C12.6292 17.6597 12.4413 17.7224 12.2484 17.7211C11.8475 17.7211 11.507 17.4618 11.4005 17.076L10.8269 14.9919H9.22727C9.0374 14.9919 8.85531 14.9165 8.72105 14.7822C8.58679 14.648 8.51136 14.4659 8.51136 14.276C8.51136 14.0862 8.58679 13.9041 8.72105 13.7698C8.85531 13.6355 9.0374 13.5601 9.22727 13.5601H10.4332L9.93125 11.7369C9.90349 11.6455 9.89433 11.5493 9.90432 11.4543C9.9143 11.3592 9.94323 11.2671 9.9894 11.1833C10.0356 11.0996 10.098 11.026 10.1731 10.9668C10.2482 10.9076 10.3343 10.8641 10.4265 10.8387C10.5187 10.8134 10.615 10.8068 10.7098 10.8193C10.8046 10.8318 10.8959 10.8631 10.9784 10.9114C11.0609 10.9598 11.1328 11.0242 11.19 11.1008C11.2472 11.1774 11.2885 11.2647 11.3114 11.3575L12.2484 14.7605L13.152 11.4776C13.2018 11.2911 13.312 11.1264 13.4655 11.0093C13.619 10.8923 13.807 10.8295 14 10.8309C14.4009 10.8309 14.7422 11.091 14.848 11.4776L15.7524 14.7605L16.6886 11.3575C16.7136 11.2668 16.7561 11.182 16.8138 11.1077C16.8715 11.0335 16.9433 10.9713 17.025 10.9248C17.1067 10.8783 17.1968 10.8484 17.2901 10.8367C17.3834 10.825 17.4781 10.8318 17.5688 10.8568C17.6595 10.8817 17.7444 10.9242 17.8186 10.9819C17.8928 11.0396 17.955 11.1114 18.0015 11.1931C18.048 11.2749 18.0779 11.365 18.0896 11.4583C18.1013 11.5516 18.0945 11.6463 18.0695 11.7369L17.5668 13.5601H18.7727C18.9626 13.5601 19.1447 13.6355 19.279 13.7698C19.4132 13.9041 19.4886 14.0862 19.4886 14.276C19.4886 14.4659 19.4132 14.648 19.279 14.7822C19.1447 14.9165 18.9626 14.9919 18.7727 14.9919ZM14 5.25C9.16761 5.25 5.25 9.16761 5.25 14C5.25 18.8332 9.16761 22.75 14 22.75C18.8324 22.75 22.75 18.8332 22.75 14C22.75 9.16761 18.8324 5.25 14 5.25Z" fill="#D8F4FF"/>
</svg>
