<svg width="12" height="12" viewBox="0 0 12 12" fill="none" xmlns="http://www.w3.org/2000/svg">
<path fill-rule="evenodd" clip-rule="evenodd" d="M1.95 4.31252C1.95 4.14002 2.0175 3.96752 2.145 3.83252C2.2715 3.70657 2.44274 3.63586 2.62125 3.63586C2.79976 3.63586 2.971 3.70657 3.0975 3.83252L6 6.73502L8.895 3.83252C9.0215 3.70657 9.19274 3.63586 9.37125 3.63586C9.54976 3.63586 9.721 3.70657 9.8475 3.83252C9.97345 3.95902 10.0442 4.13026 10.0442 4.30877C10.0442 4.48728 9.97345 4.65852 9.8475 4.78502L6.4725 8.16002C6.346 8.28597 6.17476 8.35668 5.99625 8.35668C5.81774 8.35668 5.6465 8.28597 5.52 8.16002L2.145 4.78502C2.0175 4.65752 1.95 4.48502 1.95 4.31252Z" fill="#27B9F0"/>
</svg>
