<svg width="16" height="16" viewBox="0 0 16 16" fill="none" xmlns="http://www.w3.org/2000/svg">
<path fill-rule="evenodd" clip-rule="evenodd" d="M3.48601 9.33372C3.31087 9.33367 3.13746 9.29913 2.97567 9.23207C2.81387 9.165 2.66688 9.06673 2.54307 8.94286C2.41925 8.81898 2.32105 8.67194 2.25407 8.51011C2.18709 8.34829 2.15264 8.17485 2.15268 7.99972C2.15272 7.82458 2.18726 7.65116 2.25433 7.48937C2.32139 7.32758 2.41966 7.18058 2.54354 7.05677C2.66741 6.93296 2.81446 6.83476 2.97628 6.76777C3.13811 6.70079 3.31154 6.66634 3.48668 6.66638C3.84039 6.66647 4.17958 6.80707 4.42963 7.05724C4.67968 7.30741 4.8201 7.64667 4.82001 8.00038C4.81992 8.35409 4.67933 8.69328 4.42916 8.94333C4.17898 9.19338 3.83972 9.3338 3.48601 9.33372ZM8.00001 9.33372C7.64639 9.33372 7.30725 9.19324 7.0572 8.94319C6.80716 8.69314 6.66668 8.354 6.66668 8.00038C6.66668 7.64676 6.80716 7.30762 7.0572 7.05757C7.30725 6.80752 7.64639 6.66705 8.00001 6.66705C8.35364 6.66705 8.69277 6.80752 8.94282 7.05757C9.19287 7.30762 9.33335 7.64676 9.33335 8.00038C9.33335 8.354 9.19287 8.69314 8.94282 8.94319C8.69277 9.19324 8.35364 9.33372 8.00001 9.33372ZM12.5133 9.33372C12.3382 9.33367 12.1648 9.29913 12.003 9.23207C11.8412 9.165 11.6942 9.06673 11.5704 8.94286C11.4466 8.81898 11.3484 8.67194 11.2814 8.51011C11.2144 8.34829 11.18 8.17485 11.18 7.99972C11.1801 7.82458 11.2146 7.65116 11.2817 7.48937C11.3487 7.32758 11.447 7.18058 11.5709 7.05677C11.6947 6.93296 11.8418 6.83476 12.0036 6.76777C12.1654 6.70079 12.3389 6.66634 12.514 6.66638C12.8677 6.66647 13.2069 6.80707 13.457 7.05724C13.707 7.30741 13.8474 7.64667 13.8473 8.00038C13.8473 8.35409 13.7067 8.69328 13.4565 8.94333C13.2063 9.19338 12.8671 9.3338 12.5133 9.33372Z" fill="#C9D4D8"/>
</svg>
