<svg width="21" height="21" viewBox="0 0 21 21" fill="none" xmlns="http://www.w3.org/2000/svg">
<path d="M10.5 5.25C13.3995 5.25 15.75 7.6005 15.75 10.5C15.75 13.3995 13.3995 15.75 10.5 15.75C7.6005 15.75 5.25 13.3995 5.25 10.5C5.25 7.6005 7.6005 5.25 10.5 5.25Z" fill="url(#paint0_radial_8_3461)"/>
<path d="M10.5 16.625C10.9833 16.625 11.375 17.0167 11.375 17.5V18.375C11.375 18.8583 10.9833 19.25 10.5 19.25C10.0167 19.25 9.625 18.8583 9.625 18.375V17.5C9.625 17.0167 10.0167 16.625 10.5 16.625ZM16.0685 14.8311L16.6872 15.4498C17.0289 15.7915 17.0289 16.3454 16.6872 16.6872C16.3455 17.0289 15.7915 17.0289 15.4498 16.6872L14.8311 16.0685C14.4894 15.7267 14.4894 15.1728 14.8311 14.8311C15.1728 14.4893 15.7268 14.4893 16.0685 14.8311ZM4.93148 14.8311C5.2732 14.4893 5.82722 14.4893 6.16892 14.8311C6.48434 15.1465 6.50861 15.6428 6.24171 15.9861L6.16892 16.0685L5.5502 16.6872C5.2085 17.0289 4.65448 17.0289 4.31277 16.6872C3.99734 16.3718 3.97308 15.8755 4.23998 15.5322L4.31277 15.4498L4.93148 14.8311ZM3.5 9.625C3.98324 9.625 4.375 10.0167 4.375 10.5C4.375 10.9487 4.03721 11.3186 3.60204 11.3691L3.5 11.375H2.625C2.14175 11.375 1.75 10.9833 1.75 10.5C1.75 10.0513 2.08779 9.68143 2.52296 9.63088L2.625 9.625H3.5ZM18.375 9.625C18.8583 9.625 19.25 10.0167 19.25 10.5C19.25 10.9833 18.8583 11.375 18.375 11.375H17.5C17.0167 11.375 16.625 10.9833 16.625 10.5C16.625 10.0167 17.0167 9.625 17.5 9.625H18.375ZM4.3128 4.31277C4.62822 3.99735 5.12455 3.97309 5.4678 4.23998L5.55023 4.31277L6.16895 4.93149C6.51066 5.2732 6.51066 5.82722 6.16895 6.16892C5.85352 6.48434 5.3572 6.50861 5.01394 6.24171L4.93151 6.16892L4.3128 5.5502C3.97108 5.2085 3.97108 4.65447 4.3128 4.31277ZM16.6872 4.31279C17.0289 4.65449 17.0289 5.20852 16.6872 5.55022L16.0685 6.16894C15.7267 6.51065 15.1728 6.51065 14.8311 6.16894C14.4893 5.82723 14.4893 5.27321 14.8311 4.9315L15.4498 4.31279C15.7915 3.97107 16.3454 3.97107 16.6872 4.31279ZM10.5 1.75C10.9833 1.75 11.375 2.14175 11.375 2.625V3.5C11.375 3.98324 10.9833 4.375 10.5 4.375C10.0167 4.375 9.625 3.98324 9.625 3.5V2.625C9.625 2.14175 10.0167 1.75 10.5 1.75Z" fill="url(#paint1_linear_8_3461)"/>
<defs>
<radialGradient id="paint0_radial_8_3461" cx="0" cy="0" r="1" gradientUnits="userSpaceOnUse" gradientTransform="translate(6.85417 6.5625) rotate(43.0203) scale(12.1667)">
<stop offset="0.193671" stop-color="#FFE475"/>
<stop offset="0.529275" stop-color="#FFB029"/>
<stop offset="0.780467" stop-color="#FF9100"/>
</radialGradient>
<linearGradient id="paint1_linear_8_3461" x1="1.64062" y1="1.64063" x2="19.3594" y2="19.3594" gradientUnits="userSpaceOnUse">
<stop offset="0.166667" stop-color="#FFE475"/>
<stop offset="0.798611" stop-color="#FFBF29"/>
</linearGradient>
</defs>
</svg>
