<svg width="191" height="49" viewBox="0 0 191 49" fill="none" xmlns="http://www.w3.org/2000/svg">
<path d="M10.8479 0.0156253V4.09383H12.8167V5.53136H10.8479V10.4065H9.11347V0.0156253H10.8479ZM0.19141 8.10954V1.01565H1.9102V3.17194H5.20714V1.01565H6.92592V8.10954H0.19141ZM1.80082 13.844V9.35957H3.53523V12.4378H11.4104V13.844H1.80082ZM1.9102 6.73451H5.20714V4.51572H1.9102V6.73451ZM24.6763 0V3.17194H26.6451V4.59384H24.6763V7.65641H22.9106V0H24.6763ZM13.5042 6.42201C16.8558 5.68762 18.6137 4.10165 18.848 2.18754H14.1917V0.796891H20.7856C20.7856 4.46884 18.3949 6.84389 14.1448 7.82829L13.5042 6.42201ZM15.5042 13.9534V8.23454H17.2543V9.7502H22.9419V8.23454H24.6763V13.9534H15.5042ZM17.2543 12.5471H22.9419V11.1096H17.2543V12.5471ZM30.6295 8.46892V9.8127H36.8484V8.46892H38.5828V13.9534H28.9107V8.46892H30.6295ZM27.3638 7.67203V6.25013H40.2391V7.67203H27.3638ZM28.0201 4.14071C30.9733 3.77351 32.903 2.25786 32.9108 0.687514V0.156253H34.6921V0.687514C34.6921 2.21098 36.6297 3.79695 39.5516 4.14071L38.9422 5.51574C36.575 5.19542 34.7077 4.14071 33.8015 2.71099C32.8874 4.14852 31.0124 5.19542 28.6607 5.51574L28.0201 4.14071ZM30.6295 12.5784H36.8484V11.1409H30.6295V12.5784ZM52.9737 0V14.1253H51.255V0H52.9737ZM42.0048 10.5783V1.37503H43.7236V9.09394C45.7002 9.06269 47.8096 8.89081 49.9893 8.4533L50.2081 9.90645C47.7236 10.4221 45.4189 10.5862 43.2235 10.5783H42.0048ZM66.0834 0V5.35948H68.2553V6.78139H66.0834V14.1409H64.349V0H66.0834ZM55.5988 10.6877V1.34378H62.2083V2.75006H57.3332V9.23456C59.5286 9.22675 61.2708 9.11737 63.2083 8.78143L63.4115 10.2502C61.2161 10.6252 59.3176 10.6877 56.7707 10.6877H55.5988ZM70.5678 12.8596C69.896 12.8596 69.3413 12.3128 69.3491 11.6409C69.3413 10.9846 69.896 10.4455 70.5678 10.4377C71.2163 10.4455 71.771 10.9846 71.771 11.6409C71.771 12.3128 71.2163 12.8596 70.5678 12.8596Z" fill="#0D1F26"/>
<path d="M13.6526 29.9889V31.2389C13.6429 32.5768 13.6429 34.1882 13.1546 36.3953H15.7816V37.4305H0V36.3953H11.9143C12.4319 34.1687 12.4319 32.5768 12.4221 31.2389V31.0241H2.03129V29.9889H13.6526ZM1.9727 46.0048V39.9696H13.7503V46.0048H1.9727ZM3.18366 44.9892H12.5393V40.9657H3.18366V44.9892ZM22.1489 29.6959C24.7173 29.7057 26.5728 31.2487 26.5826 33.4851C26.5728 35.7214 24.7173 37.2449 22.1489 37.2547C19.5805 37.2449 17.725 35.7214 17.7347 33.4851C17.725 31.2487 19.5805 29.7057 22.1489 29.6959ZM18.9457 33.4851C18.9262 35.0769 20.3031 36.2195 22.1489 36.2195C24.0044 36.2195 25.3814 35.0769 25.3911 33.4851C25.3814 31.9128 24.0044 30.7409 22.1489 30.7506C20.3031 30.7409 18.9262 31.9128 18.9457 33.4851ZM20.352 39.8328V38.8172H31.446V42.8017H21.602V44.9892H32.11V46.0048H20.4106V41.8446H30.235V39.8328H20.352ZM30.2155 37.9383V29.0318H31.446V37.9383H30.2155ZM44.415 32.5671C44.415 34.4909 45.8701 36.4539 48.0674 37.2547L47.4033 38.2313C45.7041 37.5672 44.4345 36.2488 43.829 34.7058C43.204 36.3855 41.8954 37.9187 40.1766 38.6805L39.493 37.7234C41.7196 36.7468 43.2333 34.4812 43.2431 32.5671V30.1061H44.415V32.5671ZM42.5985 43.1728C42.5985 41.2587 44.7665 40.1454 48.3408 40.1454C51.8761 40.1454 54.0636 41.2587 54.0636 43.1728C54.0636 45.0966 51.8761 46.2002 48.3408 46.2002C44.7665 46.2002 42.5985 45.0966 42.5985 43.1728ZM43.829 43.1728C43.8095 44.4423 45.5673 45.2333 48.3408 45.2236C51.0753 45.2333 52.8331 44.4423 52.8526 43.1728C52.8331 41.9032 51.0753 41.1219 48.3408 41.1219C45.5673 41.1219 43.8095 41.9032 43.829 43.1728ZM49.044 39.1688V29.3639H50.2159V33.8171H52.794V29.0318H53.9659V39.7157H52.794V34.8523H50.2159V39.1688H49.044ZM62.306 32.3718C62.2864 34.7937 64.2591 37.0105 66.7201 37.8797L66.0756 38.8758C64.1224 38.1531 62.5013 36.6297 61.7493 34.7351C61.0364 36.8933 59.3957 38.5242 57.3645 39.3446L56.6808 38.3484C59.2102 37.4109 61.095 35.0867 61.095 32.2936V30.067H62.306V32.3718ZM59.4543 45.8486V40.5555H60.7239V44.8134H70.939V45.8486H59.4543ZM68.8686 41.786V29.0123H70.0991V34.403H72.7554V35.4578H70.0991V41.786H68.8686ZM90.0604 31.8444V32.9186H87.3846V35.4773H90.0604V36.532H87.3846V39.4813H86.1541V29.0318H87.3846V31.8444H90.0604ZM74.7281 31.1608V30.1256H82.5017V34.6179H75.9976V37.3133H76.0953C79.1422 37.3133 81.447 37.2058 84.2791 36.7273L84.3963 37.782C81.5349 38.2508 79.2008 38.368 76.0953 38.3484H74.7672V33.6218H81.2907V31.1608H74.7281ZM76.232 43.1337C76.232 41.1805 78.361 40.0477 81.8962 40.0477C85.3924 40.0477 87.5213 41.1805 87.5213 43.1337C87.5213 45.0869 85.3924 46.2099 81.8962 46.2197C78.361 46.2099 76.232 45.0869 76.232 43.1337ZM77.443 43.1337C77.4235 44.4325 79.152 45.2333 81.8962 45.2236C84.6209 45.2333 86.3299 44.4325 86.3299 43.1337C86.3299 41.8446 84.6209 41.0438 81.8962 41.0438C79.152 41.0438 77.4235 41.8446 77.443 43.1337Z" fill="#666666"/>
<path d="M96.1543 42.0985V40.0672L102.268 30.5944H105.432V40.0086H107.287V42.0985H105.432V44.7353H103.01V42.0985H96.1543ZM98.752 40.0086H103.049V33.4851H102.893L98.752 39.911V40.0086ZM111.76 43.3485L110.119 48.8174H108.264L109.28 43.3485H111.76ZM118.459 30.5944V44.7353H115.901V33.0749H115.823L112.522 35.1843V32.86L116.018 30.5944H118.459ZM121.897 44.7353V42.8993L126.897 38.075C128.323 36.6492 129.065 35.8093 129.065 34.6179C129.065 33.2995 128.02 32.4694 126.643 32.4694C125.188 32.4694 124.251 33.3776 124.26 34.8132H121.838C121.829 32.1374 123.84 30.3991 126.663 30.3991C129.553 30.3991 131.497 32.1276 131.507 34.5007C131.497 36.0925 130.735 37.3816 127.952 40.0086L125.432 42.5087V42.6063H131.721V44.7353H121.897ZM139.085 44.9306C135.931 44.9306 133.704 43.2509 133.714 40.9461C133.704 39.1492 135.042 37.6844 136.741 37.4109V37.3328C135.257 37.0203 134.251 35.7312 134.241 34.1882C134.251 32.0007 136.292 30.3991 139.085 30.3991C141.858 30.3991 143.909 32.0007 143.909 34.1882C143.909 35.741 142.874 37.0203 141.409 37.3328V37.4109C143.099 37.6844 144.446 39.1492 144.456 40.9461C144.446 43.2509 142.21 44.9306 139.085 44.9306ZM136.331 40.7118C136.321 42.0204 137.405 42.9188 139.085 42.9188C140.745 42.9188 141.829 42.0204 141.839 40.7118C141.829 39.3836 140.677 38.3973 139.085 38.407C137.493 38.3973 136.321 39.3739 136.331 40.7118ZM136.722 34.4226C136.731 35.6628 137.708 36.5125 139.085 36.5125C140.442 36.5125 141.429 35.6628 141.429 34.4226C141.429 33.2214 140.472 32.3913 139.085 32.3913C137.669 32.3913 136.731 33.2214 136.722 34.4226ZM151.331 44.7353V30.5944H153.831V38.3875H154.007L157.816 34.1296H160.726L156.615 38.7L160.98 44.7353H158.011L154.749 40.1844L153.831 41.161V44.7353H151.331ZM165.316 44.7353L161.331 30.5944H164.066L166.625 41.0047H166.761L169.476 30.5944H171.976L174.711 41.0243H174.828L177.386 30.5944H180.121L176.136 44.7353H173.617L170.785 34.7937H170.687L167.835 44.7353H165.316ZM184.125 38.5242V44.7353H181.625V30.5944H184.066V35.9265H184.203C184.682 34.7253 185.717 33.9929 187.348 33.9929C189.545 33.9929 191 35.4187 191 37.9773V44.7353H188.519V38.368C188.51 36.9226 187.738 36.0925 186.43 36.1023C185.082 36.0925 184.125 36.9812 184.125 38.5242Z" fill="url(#paint0_linear_8_3403)"/>
<defs>
<linearGradient id="paint0_linear_8_3403" x1="95.2402" y1="24.7349" x2="192.242" y2="53.7355" gradientUnits="userSpaceOnUse">
<stop stop-color="#27B9F0"/>
<stop offset="1" stop-color="#1B98F2"/>
</linearGradient>
</defs>
</svg>
