<svg width="375" height="20" viewBox="0 0 375 20" fill="none" xmlns="http://www.w3.org/2000/svg">
<g clip-path="url(#clip0_16_8495)">
<path d="M63.3513 17.6725C64.955 16.3425 65.7963 14.5625 65.7963 12.49C65.7963 10.4175 64.955 8.67625 63.3513 7.34625C61.5713 5.88 59.01 5 56.1738 5C53.3375 5 50.7963 5.86 48.9963 7.34625C47.3925 8.67625 46.5513 10.4362 46.5513 12.49C46.5513 14.5437 47.3725 16.3425 48.9763 17.6725C50.7363 19.1388 53.2788 20 56.1538 20C59.0288 20 61.5713 19.14 63.3513 17.6725ZM56.1738 7.7375C59.89 7.7375 62.2563 9.69375 62.2563 12.49C62.2563 15.2863 59.9088 17.2612 56.155 17.2612C52.4013 17.2612 50.0925 15.345 50.0925 12.49C50.0925 9.635 52.4788 7.7375 56.175 7.7375H56.1738Z" fill="#0D1F26"/>
<path d="M69.6301 19.5888H83.9651V16.8701H73.0726V5.43005H69.6301V19.5888Z" fill="#0D1F26"/>
<path d="M101.331 19.5888H104.813L97.3025 5.43005H93.0588L85.53 19.5888H89.0113L90.635 16.5376H99.71L101.334 19.5888H101.331ZM95.1513 8.0113L98.2613 13.8201H92.0425L95.1525 8.0113H95.1513Z" fill="#0D1F26"/>
<path d="M120.361 19.5887H124.234L120.635 14.3275C122.766 13.7412 123.863 12.2937 123.863 10.0637C123.863 7.30621 121.75 5.42871 118.524 5.42871H106.926V19.5875H110.369V14.5812H116.881L120.363 19.5875L120.361 19.5887ZM120.459 9.96746C120.459 11.1412 119.618 11.865 118.151 11.865H110.368V8.14871H118.131C119.598 8.14871 120.459 8.89246 120.459 9.96746Z" fill="#0D1F26"/>
<path d="M46.5487 0H40.7638C40.12 0 39.5225 0.335 39.1863 0.88375L34.6025 8.365C34.2662 8.91375 33.6687 9.24875 33.025 9.24875H29.6763C29.0813 9.24875 28.5225 9.535 28.175 10.0188L21 20L32.9963 11.115C33.315 10.8787 33.7013 10.7513 34.0975 10.7513H37.8713C38.4662 10.7513 39.025 10.465 39.3725 9.98125L46.5487 0Z" fill="#27B9F0"/>
<path opacity="0.8" d="M27.6912 0H21L27.0837 6.74625C27.2587 6.94125 27.5087 7.05125 27.77 7.05125H32.7937C33.595 7.05125 34.0175 6.1025 33.48 5.5075L29.065 0.61125C28.7137 0.2225 28.215 0 27.6912 0Z" fill="#27B9F0"/>
<path opacity="0.8" d="M39.8575 20H46.5488L40.465 13.2537C40.29 13.0587 40.04 12.9487 39.7788 12.9487H34.755C33.9538 12.9487 33.5313 13.8975 34.0688 14.4925L38.485 19.3887C38.8363 19.7775 39.335 20 39.8588 20H39.8575Z" fill="#27B9F0"/>
</g>
<defs>
<clipPath id="clip0_16_8495">
<rect width="103.234" height="20" fill="white" transform="translate(21)"/>
</clipPath>
</defs>
</svg>
