<svg width="26" height="26" viewBox="0 0 26 26" fill="none" xmlns="http://www.w3.org/2000/svg">
<path fill-rule="evenodd" clip-rule="evenodd" d="M16.5149 8.75431C16.515 9.2638 16.4147 9.76832 16.2197 10.239C16.0248 10.7098 15.7391 11.1375 15.3789 11.4978C15.0186 11.8581 14.591 12.1439 14.1203 12.3389C13.6496 12.534 13.1451 12.6344 12.6356 12.6344C11.6066 12.6345 10.6198 12.2259 9.89212 11.4984C9.16446 10.7708 8.75561 9.78407 8.7555 8.75511C8.75545 8.24562 8.85575 7.7411 9.05068 7.27038C9.2456 6.79965 9.53133 6.37192 9.89156 6.01162C10.6191 5.28396 11.6059 4.87511 12.6348 4.875C13.6638 4.87489 14.6506 5.28355 15.3783 6.01106C16.106 6.73857 16.5148 7.72535 16.5149 8.75431ZM12.6352 13.8213C7.04827 13.8213 4.875 17.3769 4.875 19.031C4.875 20.6843 9.50133 21.125 12.6352 21.125C15.7691 21.125 20.3954 20.6843 20.3954 19.031C20.3954 17.3769 18.2222 13.8213 12.6352 13.8213Z" fill="#D8F4FF"/>
</svg>
