<svg width="26" height="26" viewBox="0 0 26 26" fill="none" xmlns="http://www.w3.org/2000/svg">
<path fill-rule="evenodd" clip-rule="evenodd" d="M16.515 8.75419C16.515 9.26368 16.4147 9.76819 16.2198 10.2389C16.0249 10.7097 15.7392 11.1374 15.3789 11.4977C15.0187 11.858 14.591 12.1438 14.1204 12.3388C13.6497 12.5338 13.1452 12.6342 12.6357 12.6343C11.6067 12.6344 10.6199 12.2257 9.8922 11.4982C9.16454 10.7707 8.75568 9.78395 8.75558 8.75498C8.75553 8.24549 8.85583 7.74098 9.05075 7.27025C9.24568 6.79953 9.53141 6.3718 9.89164 6.0115C10.6192 5.28384 11.6059 4.87498 12.6349 4.87488C13.6639 4.87477 14.6507 5.28343 15.3784 6.01094C16.106 6.73845 16.5149 7.72523 16.515 8.75419ZM12.6353 13.8212C7.04835 13.8212 4.87508 17.3767 4.87508 19.0309C4.87508 20.6842 9.5014 21.1249 12.6353 21.1249C15.7692 21.1249 20.3955 20.6842 20.3955 19.0309C20.3955 17.3767 18.2222 13.8212 12.6353 13.8212Z" fill="#D8F4FF"/>
</svg>
