<svg width="26" height="26" viewBox="0 0 26 26" fill="none" xmlns="http://www.w3.org/2000/svg">
<path fill-rule="evenodd" clip-rule="evenodd" d="M21.0766 16.2883L19.7323 15.6157L14.3727 18.2955C13.9465 18.5078 13.4766 18.618 13.0004 18.6173C12.5242 18.6179 12.0544 18.5077 11.6281 18.2955L6.26852 15.6157L4.92337 16.2883C4.77745 16.361 4.6547 16.473 4.56889 16.6116C4.48309 16.7503 4.43763 16.9101 4.43763 17.0731C4.43763 17.2361 4.48309 17.396 4.56889 17.5346C4.6547 17.6732 4.77745 17.7852 4.92337 17.8579L12.2165 21.5032C12.4599 21.6251 12.7285 21.6886 13.0008 21.6886C13.2732 21.6886 13.5417 21.6251 13.7852 21.5032L21.0774 17.857C21.2231 17.7842 21.3457 17.6723 21.4313 17.5337C21.5169 17.3952 21.5623 17.2355 21.5623 17.0727C21.5623 16.9098 21.5169 16.7501 21.4313 16.6116C21.3457 16.4731 21.2231 16.3611 21.0774 16.2883" fill="#D8F4FF"/>
<path fill-rule="evenodd" clip-rule="evenodd" d="M21.0766 12.2153L19.7323 11.5427L14.3727 14.2225C13.9465 14.4348 13.4766 14.545 13.0004 14.5443C12.5242 14.5449 12.0544 14.4347 11.6281 14.2225L6.26852 11.5427L4.92337 12.2153C4.77745 12.288 4.6547 12.4 4.56889 12.5386C4.48309 12.6773 4.43763 12.8371 4.43763 13.0001C4.43763 13.1631 4.48309 13.323 4.56889 13.4616C4.6547 13.6002 4.77745 13.7122 4.92337 13.7849L12.2165 17.4302C12.4599 17.5521 12.7285 17.6157 13.0008 17.6157C13.2732 17.6157 13.5417 17.5521 13.7852 17.4302L21.0774 13.784C21.2231 13.7112 21.3457 13.5993 21.4313 13.4607C21.5169 13.3222 21.5623 13.1625 21.5623 12.9997C21.5623 12.8368 21.5169 12.6771 21.4313 12.5386C21.3457 12.4001 21.2231 12.2881 21.0774 12.2153" fill="#D8F4FF"/>
<path fill-rule="evenodd" clip-rule="evenodd" d="M12.2165 13.3577L4.9243 9.71076C4.77885 9.63786 4.65654 9.52592 4.57106 9.38747C4.48559 9.24903 4.44032 9.08953 4.44032 8.92682C4.44032 8.76411 4.48559 8.60462 4.57106 8.46617C4.65654 8.32772 4.77885 8.21578 4.9243 8.14288L12.2165 4.49677C12.46 4.37479 12.7286 4.31128 13.0009 4.31128C13.2732 4.31128 13.5418 4.37479 13.7853 4.49677L21.0775 8.14288C21.2232 8.2157 21.3457 8.32765 21.4314 8.46619C21.517 8.60473 21.5624 8.76439 21.5624 8.92726C21.5624 9.09013 21.517 9.24979 21.4314 9.38833C21.3457 9.52687 21.2232 9.63882 21.0775 9.71164L13.7853 13.3577C13.5415 13.4794 13.2729 13.5427 13.0005 13.5427C12.7281 13.5427 12.4594 13.4794 12.2156 13.3577" fill="#D8F4FF"/>
</svg>
