<svg width="16" height="16" viewBox="0 0 16 16" fill="none" xmlns="http://www.w3.org/2000/svg">
<path fill-rule="evenodd" clip-rule="evenodd" d="M2.6 5.74999C2.6 5.51999 2.69 5.28999 2.86 5.10999C3.02867 4.94206 3.25699 4.84778 3.495 4.84778C3.73301 4.84778 3.96133 4.94206 4.13 5.10999L8 8.97999L11.86 5.10999C12.0287 4.94206 12.257 4.84778 12.495 4.84778C12.733 4.84778 12.9613 4.94206 13.13 5.10999C13.2979 5.27866 13.3922 5.50698 13.3922 5.74499C13.3922 5.983 13.2979 6.21132 13.13 6.37999L8.63 10.88C8.46133 11.0479 8.23301 11.1422 7.995 11.1422C7.75699 11.1422 7.52867 11.0479 7.36 10.88L2.86 6.37999C2.69 6.20999 2.6 5.97999 2.6 5.74999Z" fill="#27B9F0"/>
</svg>
