<svg width="26" height="26" viewBox="0 0 26 26" fill="none" xmlns="http://www.w3.org/2000/svg">
<path fill-rule="evenodd" clip-rule="evenodd" d="M19.7505 9.60876L13.4633 4.23649C13.3318 4.12384 13.1686 4.0625 13.0004 4.0625C12.8322 4.0625 12.6689 4.12384 12.5374 4.23649L6.24946 9.60876C6.07421 9.75854 5.93267 9.94888 5.83537 10.1656C5.73807 10.3823 5.68753 10.6198 5.6875 10.8604V18.393C5.6875 18.9021 5.8757 19.3903 6.21071 19.7503C6.54572 20.1103 7.00008 20.3125 7.47385 20.3125H11.5117V16.5118C11.5117 16.2997 11.5902 16.0963 11.7298 15.9463C11.8693 15.7963 12.0587 15.712 12.2561 15.712H13.7447C13.9421 15.712 14.1314 15.7963 14.271 15.9463C14.4106 16.0963 14.489 16.2997 14.489 16.5118V20.3125H18.5262C18.9999 20.3125 19.4543 20.1103 19.7893 19.7503C20.1243 19.3903 20.3125 18.9021 20.3125 18.393V10.8612C20.3125 10.6206 20.2619 10.3831 20.1646 10.1664C20.0673 9.94968 19.9258 9.75934 19.7505 9.60955" fill="#D8F4FF"/>
</svg>
