<svg width="20" height="20" viewBox="0 0 20 20" fill="none" xmlns="http://www.w3.org/2000/svg">
<path fill-rule="evenodd" clip-rule="evenodd" d="M16.9317 8.99996H11.0983V3.16663C11.0983 2.90141 10.993 2.64706 10.8054 2.45952C10.6179 2.27198 10.3635 2.16663 10.0983 2.16663C9.83312 2.16663 9.57876 2.27198 9.39123 2.45952C9.20369 2.64706 9.09833 2.90141 9.09833 3.16663V8.99996H3.265C2.99978 8.99996 2.74543 9.10532 2.55789 9.29285C2.37036 9.48039 2.265 9.73474 2.265 9.99996C2.265 10.2652 2.37036 10.5195 2.55789 10.7071C2.74543 10.8946 2.99978 11 3.265 11H9.09833V16.8333C9.09833 17.0985 9.20369 17.3529 9.39123 17.5404C9.57876 17.7279 9.83312 17.8333 10.0983 17.8333C10.3635 17.8333 10.6179 17.7279 10.8054 17.5404C10.993 17.3529 11.0983 17.0985 11.0983 16.8333V11H16.9317C17.1969 11 17.4512 10.8946 17.6388 10.7071C17.8263 10.5195 17.9317 10.2652 17.9317 9.99996C17.9317 9.73474 17.8263 9.48039 17.6388 9.29285C17.4512 9.10532 17.1969 8.99996 16.9317 8.99996Z" fill="#C9D4D8"/>
</svg>
