<svg width="20" height="20" viewBox="0 0 20 20" fill="none" xmlns="http://www.w3.org/2000/svg">
<path fill-rule="evenodd" clip-rule="evenodd" d="M16.9317 8.99996H11.0983V3.16663C11.0983 2.90141 10.993 2.64706 10.8055 2.45952C10.6179 2.27198 10.3636 2.16663 10.0983 2.16663C9.83313 2.16663 9.57878 2.27198 9.39124 2.45952C9.2037 2.64706 9.09835 2.90141 9.09835 3.16663V8.99996H3.26501C2.9998 8.99996 2.74544 9.10532 2.55791 9.29285C2.37037 9.48039 2.26501 9.73474 2.26501 9.99996C2.26501 10.2652 2.37037 10.5195 2.55791 10.7071C2.74544 10.8946 2.9998 11 3.26501 11H9.09835V16.8333C9.09835 17.0985 9.2037 17.3529 9.39124 17.5404C9.57878 17.7279 9.83313 17.8333 10.0983 17.8333C10.3636 17.8333 10.6179 17.7279 10.8055 17.5404C10.993 17.3529 11.0983 17.0985 11.0983 16.8333V11H16.9317C17.1969 11 17.4513 10.8946 17.6388 10.7071C17.8263 10.5195 17.9317 10.2652 17.9317 9.99996C17.9317 9.73474 17.8263 9.48039 17.6388 9.29285C17.4513 9.10532 17.1969 8.99996 16.9317 8.99996Z" fill="#C9D4D8"/>
</svg>
