<svg width="20" height="20" viewBox="0 0 20 20" fill="none" xmlns="http://www.w3.org/2000/svg">
<rect width="20" height="20" fill="white"/>
<path fill-rule="evenodd" clip-rule="evenodd" d="M12.8125 16.75C12.6648 16.7501 12.5185 16.7209 12.3821 16.6643C12.2456 16.6077 12.1217 16.5247 12.0175 16.42L6.3925 10.795C6.288 10.6905 6.2051 10.5665 6.14854 10.43C6.09198 10.2935 6.06287 10.1471 6.06287 9.99936C6.06287 9.8516 6.09198 9.70528 6.14854 9.56876C6.2051 9.43225 6.288 9.30821 6.3925 9.20374L12.0175 3.57874C12.1212 3.47064 12.2453 3.38432 12.3828 3.32484C12.5202 3.26537 12.6682 3.23394 12.8179 3.23239C12.9677 3.23084 13.1163 3.25922 13.2549 3.31584C13.3936 3.37247 13.5195 3.45621 13.6254 3.56215C13.7312 3.66809 13.8149 3.7941 13.8714 3.93279C13.9279 4.07149 13.9561 4.22007 13.9545 4.36982C13.9528 4.51958 13.9213 4.6675 13.8617 4.8049C13.8021 4.9423 13.7157 5.06643 13.6075 5.16999L8.77875 9.99999L13.6075 14.8287C13.7651 14.986 13.8724 15.1865 13.916 15.4048C13.9596 15.6231 13.9374 15.8494 13.8523 16.0551C13.7672 16.2608 13.6229 16.4367 13.4378 16.5604C13.2527 16.684 13.0351 16.75 12.8125 16.75Z" fill="#27B9F0"/>
</svg>
