<svg width="23" height="23" viewBox="0 0 23 23" fill="none" xmlns="http://www.w3.org/2000/svg">
<path d="M11.5 19.55C12.1351 19.55 12.65 20.0649 12.65 20.7V21.85C12.65 22.4851 12.1351 23 11.5 23C10.8649 23 10.35 22.4851 10.35 21.85V20.7C10.35 20.0649 10.8649 19.55 11.5 19.55ZM18.8186 17.1923L19.6318 18.0054C20.0808 18.4545 20.0808 19.1826 19.6318 19.6318C19.1827 20.0808 18.4545 20.0808 18.0054 19.6318L17.1923 18.8186C16.7432 18.3694 16.7432 17.6413 17.1923 17.1923C17.6413 16.7431 18.3695 16.7431 18.8186 17.1923ZM4.18138 17.1923C4.63049 16.7431 5.35863 16.7431 5.80773 17.1923C6.22228 17.6068 6.25417 18.2591 5.9034 18.7103L5.80773 18.8186L4.99455 19.6318C4.54546 20.0808 3.81731 20.0808 3.36821 19.6318C2.95365 19.2172 2.92176 18.5649 3.27254 18.1138L3.36821 18.0054L4.18138 17.1923ZM2.3 10.35C2.93512 10.35 3.45 10.8649 3.45 11.5C3.45 12.0898 3.00605 12.5758 2.43411 12.6423L2.3 12.65H1.15C0.514878 12.65 0 12.1351 0 11.5C0 10.9102 0.443951 10.4242 1.01589 10.3577L1.15 10.35H2.3ZM21.85 10.35C22.4851 10.35 23 10.8649 23 11.5C23 12.1351 22.4851 12.65 21.85 12.65H20.7C20.0649 12.65 19.55 12.1351 19.55 11.5C19.55 10.8649 20.0649 10.35 20.7 10.35H21.85ZM3.36825 3.36821C3.7828 2.95366 4.43512 2.92177 4.88625 3.27255L4.99459 3.36821L5.80776 4.18139C6.25686 4.63049 6.25686 5.35863 5.80776 5.80773C5.3932 6.22228 4.74089 6.25417 4.28975 5.9034L4.18141 5.80773L3.36825 4.99455C2.91914 4.54546 2.91914 3.81731 3.36825 3.36821ZM19.6318 3.36823C20.0808 3.81733 20.0808 4.54548 19.6318 4.99458L18.8186 5.80775C18.3694 6.25685 17.6413 6.25685 17.1923 5.80775C16.7431 5.35864 16.7431 4.63051 17.1923 4.1814L18.0054 3.36823C18.4545 2.91913 19.1826 2.91913 19.6318 3.36823ZM11.5 0C12.1351 0 12.65 0.514878 12.65 1.15V2.3C12.65 2.93512 12.1351 3.45 11.5 3.45C10.8649 3.45 10.35 2.93512 10.35 2.3V1.15C10.35 0.514878 10.8649 0 11.5 0Z" fill="url(#paint0_linear_8_3437)"/>
<defs>
<linearGradient id="paint0_linear_8_3437" x1="-0.143751" y1="-0.14375" x2="23.1438" y2="23.1438" gradientUnits="userSpaceOnUse">
<stop offset="0.166667" stop-color="#FFE475"/>
<stop offset="0.798611" stop-color="#FFBF29"/>
</linearGradient>
</defs>
</svg>
