<svg width="104" height="20" viewBox="0 0 104 20" fill="none" xmlns="http://www.w3.org/2000/svg">
<g clip-path="url(#clip0_8_3030)">
<path d="M42.3513 17.6725C43.955 16.3425 44.7963 14.5625 44.7963 12.49C44.7963 10.4175 43.955 8.67625 42.3513 7.34625C40.5713 5.88 38.01 5 35.1738 5C32.3375 5 29.7963 5.86 27.9963 7.34625C26.3925 8.67625 25.5513 10.4362 25.5513 12.49C25.5513 14.5437 26.3725 16.3425 27.9763 17.6725C29.7363 19.1388 32.2788 20 35.1538 20C38.0288 20 40.5713 19.14 42.3513 17.6725ZM35.1738 7.7375C38.89 7.7375 41.2563 9.69375 41.2563 12.49C41.2563 15.2863 38.9088 17.2612 35.155 17.2612C31.4013 17.2612 29.0925 15.345 29.0925 12.49C29.0925 9.635 31.4788 7.7375 35.175 7.7375H35.1738Z" fill="#0D1F26"/>
<path d="M48.63 19.5888H62.965V16.8701H52.0725V5.43005H48.63V19.5888Z" fill="#0D1F26"/>
<path d="M80.3313 19.5888H83.8125L76.3025 5.43005H72.0588L64.53 19.5888H68.0113L69.635 16.5376H78.71L80.3338 19.5888H80.3313ZM74.1513 8.0113L77.2613 13.8201H71.0425L74.1525 8.0113H74.1513Z" fill="#0D1F26"/>
<path d="M99.3613 19.5887H103.234L99.635 14.3275C101.766 13.7412 102.863 12.2937 102.863 10.0637C102.863 7.30621 100.75 5.42871 97.5238 5.42871H85.9263V19.5875H89.3688V14.5812H95.8813L99.3625 19.5875L99.3613 19.5887ZM99.4588 9.96746C99.4588 11.1412 98.6175 11.865 97.1513 11.865H89.3675V8.14871H97.1313C98.5975 8.14871 99.4588 8.89246 99.4588 9.96746Z" fill="#0D1F26"/>
<path d="M25.5487 0H19.7638C19.12 0 18.5225 0.335 18.1863 0.88375L13.6025 8.365C13.2662 8.91375 12.6687 9.24875 12.025 9.24875H8.67625C8.08125 9.24875 7.5225 9.535 7.175 10.0188L0 20L11.9963 11.115C12.315 10.8787 12.7013 10.7513 13.0975 10.7513H16.8713C17.4662 10.7513 18.025 10.465 18.3725 9.98125L25.5487 0Z" fill="#27B9F0"/>
<path opacity="0.8" d="M6.69125 0H0L6.08375 6.74625C6.25875 6.94125 6.50875 7.05125 6.77 7.05125H11.7937C12.595 7.05125 13.0175 6.1025 12.48 5.5075L8.065 0.61125C7.71375 0.2225 7.215 0 6.69125 0Z" fill="#27B9F0"/>
<path opacity="0.8" d="M18.8575 20H25.5488L19.465 13.2537C19.29 13.0587 19.04 12.9487 18.7788 12.9487H13.755C12.9538 12.9487 12.5313 13.8975 13.0688 14.4925L17.485 19.3887C17.8363 19.7775 18.335 20 18.8588 20H18.8575Z" fill="#27B9F0"/>
</g>
<defs>
<clipPath id="clip0_8_3030">
<rect width="103.234" height="20" fill="white"/>
</clipPath>
</defs>
</svg>
