<svg width="26" height="26" viewBox="0 0 26 26" fill="none" xmlns="http://www.w3.org/2000/svg">
<path fill-rule="evenodd" clip-rule="evenodd" d="M16.5149 8.75419C16.515 9.26368 16.4147 9.76819 16.2197 10.2389C16.0248 10.7097 15.7391 11.1374 15.3789 11.4977C15.0186 11.858 14.591 12.1438 14.1203 12.3388C13.6496 12.5338 13.1451 12.6342 12.6356 12.6343C11.6066 12.6344 10.6198 12.2257 9.89212 11.4982C9.16446 10.7707 8.75561 9.78395 8.7555 8.75498C8.75545 8.24549 8.85575 7.74098 9.05068 7.27025C9.2456 6.79953 9.53133 6.3718 9.89156 6.0115C10.6191 5.28384 11.6059 4.87498 12.6348 4.87488C13.6638 4.87477 14.6506 5.28343 15.3783 6.01094C16.106 6.73845 16.5148 7.72523 16.5149 8.75419ZM12.6352 13.8212C7.04827 13.8212 4.875 17.3767 4.875 19.0309C4.875 20.6842 9.50133 21.1249 12.6352 21.1249C15.7691 21.1249 20.3954 20.6842 20.3954 19.0309C20.3954 17.3767 18.2222 13.8212 12.6352 13.8212Z" fill="#27B9F0"/>
</svg>
