<svg width="16" height="16" viewBox="0 0 16 16" fill="none" xmlns="http://www.w3.org/2000/svg">
<path fill-rule="evenodd" clip-rule="evenodd" d="M5.74995 2.60006C5.86813 2.6 5.98515 2.62329 6.09429 2.66859C6.20344 2.7139 6.30256 2.78033 6.38595 2.86406L10.886 7.36406C10.9696 7.44763 11.0359 7.54686 11.0811 7.65607C11.1264 7.76529 11.1497 7.88234 11.1497 8.00056C11.1497 8.11877 11.1264 8.23583 11.0811 8.34504C11.0359 8.45425 10.9696 8.55348 10.886 8.63706L6.38595 13.1371C6.30303 13.2235 6.20368 13.2926 6.09372 13.3402C5.98376 13.3878 5.8654 13.4129 5.7456 13.4141C5.62579 13.4154 5.50695 13.3927 5.39603 13.3474C5.28511 13.3021 5.18435 13.2351 5.09967 13.1503C5.01498 13.0656 4.94807 12.9648 4.90285 12.8538C4.85764 12.7429 4.83504 12.624 4.83637 12.5042C4.8377 12.3844 4.86294 12.2661 4.9106 12.1561C4.95827 12.0462 5.0274 11.9469 5.11395 11.8641L8.97695 8.00006L5.11395 4.13706C4.9879 4.01125 4.90201 3.85086 4.86715 3.67622C4.83229 3.50157 4.85003 3.3205 4.91813 3.15594C4.98622 2.99138 5.10161 2.85072 5.24968 2.75177C5.39776 2.65281 5.57186 2.60002 5.74995 2.60006Z" fill="#E8E8E8"/>
</svg>
