<svg width="12" height="12" viewBox="0 0 12 12" fill="none" xmlns="http://www.w3.org/2000/svg">
<g clip-path="url(#clip0_17_8996)">
<path d="M10.9244 10.0755L8.6209 7.77204C9.1634 7.05304 9.4889 6.16204 9.4889 5.19404C9.4889 2.82604 7.5619 0.899536 5.1944 0.899536C2.8264 0.900036 0.899902 2.82654 0.899902 5.19454C0.899902 7.56204 2.8264 9.48904 5.1944 9.48904C6.1619 9.48904 7.0534 9.16354 7.7724 8.62104L10.0759 10.9245C10.1929 11.0415 10.3464 11.1 10.4999 11.1C10.6534 11.1 10.8069 11.0415 10.9244 10.924C11.1584 10.69 11.1584 10.31 10.9244 10.0755ZM2.0999 5.19454C2.0999 3.48804 3.4879 2.10004 5.1944 2.10004C6.9004 2.10004 8.2884 3.48804 8.2884 5.19404C8.2884 6.90004 6.9004 8.28804 5.1944 8.28804C3.4879 8.28854 2.0999 6.90054 2.0999 5.19454Z" fill="white"/>
</g>
<defs>
<clipPath id="clip0_17_8996">
<rect width="12" height="12" fill="white"/>
</clipPath>
</defs>
</svg>
